<svg xmlns="http://www.w3.org/2000/svg" viewBox="0 0 100 100">
    <defs>
        <linearGradient id="grad" x1="0%" y1="0%" x2="100%" y2="100%">
            <stop offset="0%" style="stop-color:#667eea;stop-opacity:1"/>
            <stop offset="100%" style="stop-color:#764ba2;stop-opacity:1"/>
        </linearGradient>
    </defs>

    <!-- Background Circle -->
    <circle cx="50" cy="50" r="48" fill="url(#grad)"/>

    <!-- Calculator Display -->
    <rect x="20" y="20" width="60" height="15" rx="2" fill="#ffffff" opacity="0.9"/>

    <!-- Calculator Buttons -->
    <!-- Row 1 -->
    <rect x="22" y="40" width="10" height="10" rx="1.5" fill="#ffffff" opacity="0.85"/>
    <rect x="35" y="40" width="10" height="10" rx="1.5" fill="#ffffff" opacity="0.85"/>
    <rect x="48" y="40" width="10" height="10" rx="1.5" fill="#ffffff" opacity="0.85"/>
    <rect x="61" y="40" width="16" height="10" rx="1.5" fill="#4cc9f0" opacity="0.9"/>

    <!-- Row 2 -->
    <rect x="22" y="53" width="10" height="10" rx="1.5" fill="#ffffff" opacity="0.85"/>
    <rect x="35" y="53" width="10" height="10" rx="1.5" fill="#ffffff" opacity="0.85"/>
    <rect x="48" y="53" width="10" height="10" rx="1.5" fill="#ffffff" opacity="0.85"/>
    <rect x="61" y="53" width="16" height="10" rx="1.5" fill="#4cc9f0" opacity="0.9"/>

    <!-- Row 3 -->
    <rect x="22" y="66" width="10" height="10" rx="1.5" fill="#ffffff" opacity="0.85"/>
    <rect x="35" y="66" width="10" height="10" rx="1.5" fill="#ffffff" opacity="0.85"/>
    <rect x="48" y="66" width="10" height="10" rx="1.5" fill="#ffffff" opacity="0.85"/>
    <rect x="61" y="66" width="16" height="10" rx="1.5" fill="#10b981" opacity="0.9"/>

    <!-- Border -->
    <circle cx="50" cy="50" r="48" fill="none" stroke="#ffffff" stroke-width="2" opacity="0.3"/>
</svg>
